<svg>
    <defs>
        <symbol id="next" xmlns="http://www.w3.org/2000/svg" viewBox="0 0 250.488 250.488" style="enable-background:new 0 0 250.488 250.488;"><path d="M242.381 110.693L140.415 24.591c-3.48-2.406-7.805-2.005-11.071-2.005-13.061 0-13.003 11.7-13.003 14.666v65.249l-92.265-77.91c-3.482-2.406-7.807-2.005-11.072-2.005C-.057 22.587 0 34.287 0 37.252v175.983c0 2.507-.057 14.666 13.004 14.666 3.265 0 7.59.401 11.072-2.005l92.265-77.91v65.249c0 2.507-.058 14.666 13.003 14.666 3.266 0 7.591.401 11.071-2.005l101.966-86.101c9.668-6.675 7.997-14.551 7.997-14.551s1.671-7.877-7.997-14.551z" fill-rule="evenodd" clip-rule="evenodd"/></symbol>
        <symbol id="pause" xmlns="http://www.w3.org/2000/svg" viewBox="0 0 232.679 232.679" style="enable-background:new 0 0 232.679 232.679;"><path d="M80.543 0H35.797c-9.885 0-17.898 8.014-17.898 17.898v196.883a17.9 17.9 0 0 0 17.898 17.898h44.746a17.9 17.9 0 0 0 17.898-17.898V17.898C98.44 8.014 90.427 0 80.543 0zm116.339 0h-44.746c-9.886 0-17.899 8.014-17.899 17.898v196.883c0 9.885 8.013 17.898 17.899 17.898h44.746a17.9 17.9 0 0 0 17.898-17.898V17.898C214.781 8.014 206.767 0 196.882 0z" fill-rule="evenodd" clip-rule="evenodd"/></symbol>
        <symbol id="play" xmlns="http://www.w3.org/2000/svg" viewBox="0 0 232.153 232.153" style="enable-background:new 0 0 232.153 232.153;"><path d="M203.791 99.628L49.307 2.294C44.74-.425 39.069.028 34.786.028 17.654.028 17.73 13.255 17.73 16.606v198.94c0 2.833-.075 16.579 17.056 16.579 4.283 0 9.955.451 14.521-2.267l154.483-97.333c12.68-7.545 10.489-16.449 10.489-16.449s2.192-8.904-10.488-16.448z" fill-rule="evenodd" clip-rule="evenodd"/></symbol>
        <symbol id="random" xmlns="http://www.w3.org/2000/svg" viewBox="0 0 286.374 286.374" style="enable-background:new 0 0 286.374 286.374;"><path d="M157.507 121.709c7.074-11.495 15.899-14.318 30.428-14.318h35.796v26.847l62.643-48.326-62.643-50.115v26.848h-35.796c-11.215 0-23.689 3.999-33.504 7.913-17.898 7.119-29.281 19.368-36.902 36.832-4.097 9.397-4.95 30.988-10.851 42.957-8.837 17.898-20.556 28.636-35.084 28.636H0l.001 44.747h71.593c6.74 0 21.897-4 31.713-7.915 17.898-7.117 29.743-19.227 42.398-46.843 5.384-11.76 8.221-41.446 11.802-47.263zm-58.464 1.719l.126-.699c1.398-7.887 2.74-15.34 5.229-21.073 3.803-8.725 8.696-15.968 14.235-22.429-4.67-3.579-9.676-6.418-15.327-8.67-9.816-3.914-20.498-7.913-31.713-7.913H.001L0 107.389h71.594c10.683 0 19.828 5.846 27.449 16.039zm124.688 55.556l-37.587-.001c-12.25 0-19.129-2.349-25.24-9.871-.671 2.084-1.384 4.083-2.181 5.831-6.195 13.507-12.473 23.883-19.48 32.162 4.516 3.369 9.398 6.418 15.186 8.711 9.816 3.915 22.289 7.915 33.504 7.915h35.796v26.847l62.643-50.116-62.643-48.325v26.847z" fill-rule="evenodd" clip-rule="evenodd"/></symbol>
        <symbol id="skip" xmlns="http://www.w3.org/2000/svg" viewBox="0 0 205.857 205.857" style="enable-background:new 0 0 205.857 205.857;"><path d="M174.522 0h-26.848a17.9 17.9 0 0 0-17.897 17.899v62.533L37.513 2.522C34.03.116 29.706.517 26.441.517c-13.061 0-13.004 11.7-13.004 14.666v175.983c0 2.507-.057 14.666 13.004 14.666 3.265 0 7.589.401 11.072-2.005l92.265-77.91v62.016a17.9 17.9 0 0 0 17.897 17.898h26.848a17.9 17.9 0 0 0 17.898-17.898V17.899C192.421 8.013 184.408 0 174.522 0z" fill-rule="evenodd" clip-rule="evenodd"/></symbol>
        <symbol id="volume" xmlns="http://www.w3.org/2000/svg" viewBox="0 0 213.789 213.789" style="enable-background:new 0 0 213.789 213.789;"><path d="M177.737 38.249l-34.69 29.64c15.14 6.818 27.191 21.681 27.191 39.034s-12.051 32.216-27.191 39.034l34.69 29.64c21.294-15.717 36.052-40.586 36.052-68.674s-14.758-52.958-36.052-68.674zm-69.065-26.197L44.747 62.176H17.899C4.672 62.176.001 67.002.001 80.074v53.696c0 13.072 4.951 17.898 17.898 17.898h26.848l63.925 50.068c7.668 4.948 16.559 6.505 16.559-7.365V19.418c.001-13.87-8.89-12.313-16.559-7.366z" fill-rule="evenodd" clip-rule="evenodd"/></symbol>
        <symbol id="arrow" viewBox="0 0 32 32" xmlns="http://www.w3.org/2000/svg"><path d="M24.285,11.284L16,19.571l-8.285-8.288c-0.395-0.395-1.034-0.395-1.429,0 c-0.394,0.395-0.394,1.035,0,1.43l8.999,9.002l0,0l0,0c0.394,0.395,1.034,0.395,1.428,0l8.999-9.002 c0.394-0.395,0.394-1.036,0-1.431C25.319,10.889,24.679,10.889,24.285,11.284z" /><g/><g/><g/><g/><g/><g/></symbol>
    </defs>
</svg>